<svg width="20" height="20" viewBox="0 0 20 20" fill="none" xmlns="http://www.w3.org/2000/svg">
<path fill-rule="evenodd" clip-rule="evenodd" d="M9.9915 1.6665C5.3915 1.6665 1.6665 5.39984 1.6665 9.99984C1.6665 14.5998 5.3915 18.3332 9.9915 18.3332C14.5998 18.3332 18.3332 14.5998 18.3332 9.99984C18.3332 5.39984 14.5998 1.6665 9.9915 1.6665ZM10.8332 10.8332V5.83317H9.1665V10.8332H10.8332ZM10.8332 14.1665V12.4998H9.1665V14.1665H10.8332ZM3.33317 9.99984C3.33317 13.6832 6.3165 16.6665 9.99984 16.6665C13.6832 16.6665 16.6665 13.6832 16.6665 9.99984C16.6665 6.3165 13.6832 3.33317 9.99984 3.33317C6.3165 3.33317 3.33317 6.3165 3.33317 9.99984Z" fill="#373A40"/>
</svg>
