<svg width="20" height="20" viewBox="0 0 20 20" fill="none" xmlns="http://www.w3.org/2000/svg">
<path fill-rule="evenodd" clip-rule="evenodd" d="M14.0248 0.716667L12.9415 1.8C14.1915 2.70833 14.9998 4.175 14.9998 5.83333H4.99984C4.99984 4.175 5.80817 2.71667 7.0415 1.80833L5.94984 0.716667C5.78317 0.55 5.78317 0.291667 5.94984 0.125C6.1165 -0.0416667 6.37484 -0.0416667 6.5415 0.125L7.78317 1.35833C8.44984 1.025 9.19984 0.833333 9.99984 0.833333C10.7915 0.833333 11.5415 1.025 12.1998 1.35833L13.4332 0.125C13.5998 -0.0416667 13.8582 -0.0416667 14.0248 0.125C14.1915 0.291667 14.1915 0.55 14.0248 0.716667ZM1.6665 7.91667C1.6665 7.225 2.22484 6.66667 2.9165 6.66667C3.60817 6.66667 4.1665 7.225 4.1665 7.91667V13.75C4.1665 14.4417 3.60817 15 2.9165 15C2.22484 15 1.6665 14.4417 1.6665 13.75V7.91667ZM5.83317 15.8333C5.37484 15.8333 4.99984 15.4583 4.99984 15V6.66667H14.9998V15C14.9998 15.4583 14.6248 15.8333 14.1665 15.8333H13.3332V18.75C13.3332 19.4417 12.7748 20 12.0832 20C11.3915 20 10.8332 19.4417 10.8332 18.75V15.8333H9.1665V18.75C9.1665 19.4417 8.60817 20 7.9165 20C7.22484 20 6.6665 19.4417 6.6665 18.75V15.8333H5.83317ZM17.0832 6.66667C16.3915 6.66667 15.8332 7.225 15.8332 7.91667V13.75C15.8332 14.4417 16.3915 15 17.0832 15C17.7748 15 18.3332 14.4417 18.3332 13.75V7.91667C18.3332 7.225 17.7748 6.66667 17.0832 6.66667ZM8.33317 4.16667H7.49984V3.33333H8.33317V4.16667ZM11.6665 4.16667H12.4998V3.33333H11.6665V4.16667Z" fill="#373A40"/>
</svg>
