<svg width="10" height="16" viewBox="0 0 10 16" fill="none" xmlns="http://www.w3.org/2000/svg">
<path d="M0.7566 8.9195L7.55144 15.7143C7.70839 15.8707 7.92088 15.9584 8.1424 15.9584C8.36393 15.9584 8.57642 15.8707 8.73337 15.7143L9.23402 15.2137C9.39066 15.0569 9.47865 14.8443 9.47865 14.6227C9.47865 14.4011 9.39066 14.1885 9.23402 14.0318L3.52822 8.32595L9.24047 2.61369C9.39679 2.45674 9.48457 2.24425 9.48457 2.02272C9.48457 1.8012 9.39679 1.58871 9.24047 1.43176L8.73982 0.931111C8.58287 0.774784 8.37038 0.687012 8.14886 0.687012C7.92734 0.687012 7.71484 0.774784 7.55789 0.931111L0.7566 7.73369C0.600346 7.89146 0.512695 8.10454 0.512695 8.32659C0.512695 8.54865 0.600346 8.76172 0.7566 8.9195Z" fill="#373A40"/>
</svg>
