<svg width="42" height="42" viewBox="0 0 42 42" fill="none" xmlns="http://www.w3.org/2000/svg">
<g clip-path="url(#clip0_977_15086)">
<path d="M35.4375 0H6.5625C2.93813 0 0 2.93813 0 6.5625V35.4375C0 39.0619 2.93813 42 6.5625 42H35.4375C39.0619 42 42 39.0619 42 35.4375V6.5625C42 2.93813 39.0619 0 35.4375 0Z" fill="#1877F2"/>
<path d="M31.5 21C31.5 15.225 26.775 10.5 21 10.5C15.225 10.5 10.5 15.225 10.5 21C10.5 26.25 14.3062 30.5812 19.2937 31.3687V24.0187H16.6687V21H19.2937V18.6375C19.2937 16.0125 20.8688 14.5688 23.2313 14.5688C24.4125 14.5688 25.5938 14.8313 25.5938 14.8313V17.4563H24.2812C22.9688 17.4563 22.575 18.2438 22.575 19.0312V21H25.4625L24.9375 24.0187H22.4438V31.5C27.6938 30.7125 31.5 26.25 31.5 21Z" fill="white"/>
</g>
<defs>
<clipPath id="clip0_977_15086">
<rect width="42" height="42" rx="10" fill="white"/>
</clipPath>
</defs>
</svg>
