<svg width="20" height="20" viewBox="0 0 20 20" fill="none" xmlns="http://www.w3.org/2000/svg">
<path fill-rule="evenodd" clip-rule="evenodd" d="M18.3333 3.33366H11.6667L10 1.66699H5C4.08333 1.66699 3.34167 2.41699 3.34167 3.33366L3.33333 13.3337C3.33333 14.2503 4.08333 15.0003 5 15.0003H18.3333C19.25 15.0003 20 14.2503 20 13.3337V5.00033C20 4.08366 19.25 3.33366 18.3333 3.33366ZM0 5.00033H1.66667V16.667H16.6667V18.3337H1.66667C0.75 18.3337 0 17.5837 0 16.667L0.00833333 9.16699H0V5.00033ZM17.5 12.5003H5.83333L9.58333 7.50033L12.5 11.2587L14.5833 8.75033L17.5 12.5003ZM5 13.3337H18.3333V5.00033H10.975L10.4833 4.50866L9.30833 3.33366H5V13.3337Z" fill="white"/>
</svg>
