<svg width="28" height="28" viewBox="0 0 28 28" fill="none" xmlns="http://www.w3.org/2000/svg">
<path d="M27 22.8173V15.2779C27 12.8118 27 11.5788 26.493 10.4889C25.9859 9.39904 25.0311 8.57984 23.1215 6.94145L21.6771 5.70214C18.0235 2.56737 16.1967 1 14 1C11.8033 1 9.9765 2.56737 6.32291 5.70214L4.87846 6.94145C2.96889 8.57984 2.01412 9.39904 1.50706 10.4889C1 11.5788 1 12.8118 1 15.2779V22.8173C1 24.1166 1 24.7662 1.2199 25.2787C1.51311 25.9619 2.0755 26.5048 2.78335 26.7878C3.31426 27 3.98728 27 5.33333 27H5.81481C6.71034 27 7.15811 27 7.52548 26.9051C8.52241 26.6471 9.30111 25.8955 9.56823 24.9332C9.66667 24.5786 9.66667 24.1464 9.66667 23.282V20.0288C9.66667 17.7187 11.6067 15.8461 14 15.8461C16.3933 15.8461 18.3333 17.7187 18.3333 20.0288V23.282C18.3333 24.1464 18.3333 24.5786 18.4317 24.9332C18.6989 25.8955 19.4776 26.6471 20.4746 26.9051C20.8419 27 21.2897 27 22.1852 27H22.6667C24.0127 27 24.6857 27 25.2167 26.7878C25.9245 26.5048 26.4869 25.9619 26.7802 25.2787C27 24.7662 27 24.1166 27 22.8173Z" stroke="white" stroke-width="2"/>
</svg>
