<svg width="42" height="42" viewBox="0 0 42 42" fill="none" xmlns="http://www.w3.org/2000/svg">
<g clip-path="url(#clip0_977_15083)">
<path d="M35.4375 0H6.5625C2.93813 0 0 2.93813 0 6.5625V35.4375C0 39.0619 2.93813 42 6.5625 42H35.4375C39.0619 42 42 39.0619 42 35.4375V6.5625C42 2.93813 39.0619 0 35.4375 0Z" fill="#F00073"/>
<path d="M21.0002 12.075C23.8877 12.075 24.2814 12.075 25.4627 12.075C26.5127 12.075 27.0377 12.3375 27.4314 12.4688C27.9564 12.7313 28.3502 12.8625 28.7439 13.2563C29.1377 13.65 29.4002 14.0438 29.5314 14.5688C29.6627 14.9625 29.7939 15.4875 29.9252 16.5375C29.9252 17.7188 29.9252 17.9813 29.9252 21C29.9252 24.0188 29.9252 24.2813 29.9252 25.4625C29.9252 26.5125 29.6627 27.0375 29.5314 27.4313C29.2689 27.9563 29.1377 28.35 28.7439 28.7438C28.3502 29.1375 27.9564 29.4 27.4314 29.5313C27.0377 29.6625 26.5127 29.7938 25.4627 29.925C24.2814 29.925 24.0189 29.925 21.0002 29.925C17.9814 29.925 17.7189 29.925 16.5377 29.925C15.4877 29.925 14.9627 29.6625 14.5689 29.5313C14.0439 29.2688 13.6502 29.1375 13.2564 28.7438C12.8627 28.35 12.6002 27.9563 12.4689 27.4313C12.3377 27.0375 12.2064 26.5125 12.0752 25.4625C12.0752 24.2813 12.0752 24.0188 12.0752 21C12.0752 17.9813 12.0752 17.7188 12.0752 16.5375C12.0752 15.4875 12.3377 14.9625 12.4689 14.5688C12.7314 14.0438 12.8627 13.65 13.2564 13.2563C13.6502 12.8625 14.0439 12.6 14.5689 12.4688C14.9627 12.3375 15.4877 12.2063 16.5377 12.075C17.7189 12.075 18.1127 12.075 21.0002 12.075ZM21.0002 10.1063C17.9814 10.1063 17.7189 10.1063 16.5377 10.1063C15.3564 10.1063 14.5689 10.3688 13.9127 10.6313C13.2564 10.8938 12.6002 11.2875 11.9439 11.9438C11.2877 12.6 11.0252 13.125 10.6314 13.9125C10.3689 14.5688 10.2377 15.3563 10.1064 16.5375C10.1064 17.7188 10.1064 18.1125 10.1064 21C10.1064 24.0188 10.1064 24.2813 10.1064 25.4625C10.1064 26.6438 10.3689 27.4313 10.6314 28.0875C10.8939 28.7438 11.2877 29.4 11.9439 30.0563C12.6002 30.7125 13.1252 30.975 13.9127 31.3688C14.5689 31.6313 15.3564 31.7625 16.5377 31.8938C17.7189 31.8938 18.1127 31.8938 21.0002 31.8938C23.8877 31.8938 24.2814 31.8938 25.4627 31.8938C26.6439 31.8938 27.4314 31.6313 28.0877 31.3688C28.7439 31.1063 29.4002 30.7125 30.0564 30.0563C30.7127 29.4 30.9752 28.875 31.3689 28.0875C31.6314 27.4313 31.7627 26.6438 31.8939 25.4625C31.8939 24.2813 31.8939 23.8875 31.8939 21C31.8939 18.1125 31.8939 17.7188 31.8939 16.5375C31.8939 15.3563 31.6314 14.5688 31.3689 13.9125C31.1064 13.2563 30.7127 12.6 30.0564 11.9438C29.4002 11.2875 28.8752 11.025 28.0877 10.6313C27.4314 10.3688 26.6439 10.2375 25.4627 10.1063C24.2814 10.1063 24.0189 10.1063 21.0002 10.1063Z" fill="white"/>
<path d="M21.0002 15.3563C17.8502 15.3563 15.3564 17.85 15.3564 21C15.3564 24.15 17.8502 26.6438 21.0002 26.6438C24.1502 26.6438 26.6439 24.15 26.6439 21C26.6439 17.85 24.1502 15.3563 21.0002 15.3563ZM21.0002 24.675C19.0314 24.675 17.3252 23.1 17.3252 21C17.3252 19.0313 18.9002 17.325 21.0002 17.325C22.9689 17.325 24.6752 18.9 24.6752 21C24.6752 22.9688 22.9689 24.675 21.0002 24.675Z" fill="white"/>
<path d="M26.7752 16.5375C27.5001 16.5375 28.0877 15.9499 28.0877 15.225C28.0877 14.5001 27.5001 13.9125 26.7752 13.9125C26.0503 13.9125 25.4627 14.5001 25.4627 15.225C25.4627 15.9499 26.0503 16.5375 26.7752 16.5375Z" fill="white"/>
</g>
<defs>
<clipPath id="clip0_977_15083">
<rect width="42" height="42" rx="10" fill="white"/>
</clipPath>
</defs>
</svg>
