<svg width="20" height="18" viewBox="0 0 20 18" fill="none" xmlns="http://www.w3.org/2000/svg">
<path fill-rule="evenodd" clip-rule="evenodd" d="M10.7252 11.5582L8.6085 9.4665L8.6335 9.4415C10.0835 7.82484 11.1168 5.9665 11.7252 3.99984H14.1668V2.33317H8.3335V0.666504H6.66683V2.33317H0.833496V3.9915H10.1418C9.5835 5.59984 8.70016 7.12484 7.50016 8.45817C6.72516 7.59984 6.0835 6.65817 5.57516 5.6665H3.9085C4.51683 7.02484 5.35016 8.30817 6.39183 9.4665L2.15016 13.6498L3.3335 14.8332L7.50016 10.6665L10.0918 13.2582L10.7252 11.5582ZM15.4168 7.33317H13.7502L10.0002 17.3332H11.6668L12.6002 14.8332H16.5585L17.5002 17.3332H19.1668L15.4168 7.33317ZM14.5835 9.55817L13.2335 13.1665H15.9335L14.5835 9.55817Z" fill="#373A40"/>
</svg>
