<svg width="28" height="28" viewBox="0 0 28 28" fill="none" xmlns="http://www.w3.org/2000/svg">
<path d="M1.17783 7.61303C1.33765 4.11903 4.11902 1.33765 7.61303 1.17783C9.74487 1.08032 12.0828 1 14 1C15.9172 1 18.2551 1.08032 20.387 1.17783C23.881 1.33765 26.6624 4.11902 26.8222 7.61303C26.9197 9.74487 27 12.0828 27 14C27 15.9172 26.9197 18.2551 26.8222 20.387C26.6624 23.881 23.881 26.6624 20.387 26.8222C18.2551 26.9197 15.9172 27 14 27C12.0828 27 9.74487 26.9197 7.61303 26.8222C4.11903 26.6624 1.33765 23.881 1.17783 20.387C1.08032 18.2551 1 15.9172 1 14C1 12.0828 1.08032 9.74487 1.17783 7.61303Z" stroke="#777777" stroke-width="2"/>
<path d="M11.3999 10.8552C11.3999 9.97661 12.3791 9.45258 13.1101 9.93992L17.827 13.0845C18.4801 13.52 18.4801 14.4797 17.827 14.9151L13.1101 18.0597C12.3791 18.547 11.3999 18.023 11.3999 17.1444V10.8552Z" stroke="#777777" stroke-width="2"/>
</svg>
