<svg width="21" height="20" viewBox="0 0 21 20" fill="none" xmlns="http://www.w3.org/2000/svg">
<path d="M17.976 15.6451C17.976 15.9506 17.908 16.2647 17.7635 16.5702C17.6189 16.8758 17.4319 17.1644 17.1854 17.436C16.7689 17.8944 16.3099 18.2254 15.7913 18.4376C15.2812 18.6498 14.7287 18.7601 14.1336 18.7601C13.2665 18.7601 12.3399 18.5564 11.3624 18.1405C10.3848 17.7246 9.40725 17.1644 8.43811 16.4599C7.46056 15.7469 6.53398 14.9575 5.64991 14.0833C4.77432 13.2005 3.98376 12.2753 3.27819 11.3077C2.58113 10.3401 2.02009 9.37244 1.61205 8.41329C1.20401 7.44566 1 6.52047 1 5.63772C1 5.06054 1.10201 4.50882 1.30603 3.99954C1.51004 3.48178 1.83308 3.00645 2.28361 2.58205C2.82766 2.04731 3.42271 1.78418 4.05176 1.78418C4.28978 1.78418 4.5278 1.83511 4.74032 1.93696C4.96134 2.03882 5.15686 2.1916 5.30988 2.41229L7.28204 5.18786C7.43506 5.40006 7.54556 5.59528 7.62204 5.78202C7.69862 5.96027 7.74106 6.13852 7.74106 6.29979C7.74106 6.5035 7.68155 6.70721 7.56257 6.90243C7.45206 7.09766 7.29055 7.30137 7.08653 7.50508L6.44047 8.17563C6.34696 8.269 6.30446 8.37934 6.30446 8.51515C6.30446 8.58305 6.31296 8.64247 6.32996 8.71037C6.35546 8.77828 6.38097 8.82921 6.39797 8.88013C6.55098 9.16024 6.8145 9.52522 7.18853 9.96659C7.57107 10.408 7.9791 10.8578 8.42114 11.3077C8.88015 11.7576 9.32218 12.1735 9.7728 12.5554C10.2148 12.9289 10.5803 13.1835 10.8694 13.3363C10.9119 13.3533 10.9628 13.3788 11.0223 13.4042C11.0903 13.4297 11.1584 13.4382 11.2349 13.4382C11.3794 13.4382 11.4899 13.3873 11.5834 13.2939L12.2295 12.6573C12.442 12.4451 12.646 12.2838 12.8415 12.182C13.037 12.0631 13.2326 12.0037 13.4451 12.0037C13.6066 12.0037 13.7766 12.0377 13.9636 12.1141C14.1506 12.1904 14.3461 12.3008 14.5587 12.4451L17.3724 14.4398C17.5934 14.5925 17.7464 14.7708 17.84 14.983C17.9249 15.1952 17.976 15.4074 17.976 15.6451Z" stroke="#FF8240" stroke-width="1.75" stroke-miterlimit="10"/>
<path fill-rule="evenodd" clip-rule="evenodd" d="M16.8851 4.18696C15.1177 2.35577 12.6555 1.19479 9.912 1.13373C9.90179 1.13351 9.89157 1.13329 9.88135 1.1331C9.70432 1.12969 9.52828 1.1309 9.35333 1.13662C9.04694 1.14665 8.77746 0.922677 8.7502 0.617332C8.72293 0.311722 8.94858 0.0404044 9.25517 0.0284306C9.44106 0.0211709 9.62694 0.0185862 9.81264 0.0206554C10.9966 0.0338475 12.1733 0.236208 13.2976 0.622262C14.7737 1.12908 16.1265 1.94112 17.2679 3.00552C18.4093 4.06991 19.3136 5.36278 19.9221 6.79993C20.3856 7.89464 20.6695 9.05436 20.7652 10.2345C20.7802 10.4196 20.7906 10.6052 20.7963 10.7911C20.8058 11.0978 20.5508 11.3419 20.244 11.336C19.9372 11.3301 19.6949 11.0763 19.684 10.7696C19.5954 8.27109 18.5869 5.99872 16.9819 4.28872C16.9499 4.25458 16.9176 4.22066 16.8851 4.18696Z" fill="#FF8240"/>
<path fill-rule="evenodd" clip-rule="evenodd" d="M16.911 11.2719C17.2179 11.2778 17.4734 11.0336 17.4574 10.7272C17.4477 10.5407 17.4313 10.3549 17.4082 10.17C17.3187 9.45292 17.1296 8.74998 16.8448 8.08192C16.4137 7.07094 15.7733 6.16277 14.9658 5.41725C14.1583 4.67173 13.2019 4.10579 12.1598 3.75671C11.4712 3.52605 10.7554 3.39353 10.0335 3.36154C9.84731 3.35329 9.66076 3.35173 9.47416 3.35688C9.1674 3.36536 8.94434 3.63961 8.97469 3.94499C9.00501 4.2501 9.27693 4.47061 9.5835 4.46595C9.66117 4.46477 9.73915 4.46492 9.81742 4.46643C13.3122 4.53371 16.1271 7.27805 16.3434 10.7054C16.3627 11.0117 16.6042 11.266 16.911 11.2719Z" fill="#FF8240"/>
</svg>
