<svg width="20" height="20" viewBox="0 0 20 20" fill="none" xmlns="http://www.w3.org/2000/svg">
<path fill-rule="evenodd" clip-rule="evenodd" d="M9.99984 1.6665C6.77484 1.6665 4.1665 4.27484 4.1665 7.49984C4.1665 11.8748 9.99984 18.3332 9.99984 18.3332C9.99984 18.3332 15.8332 11.8748 15.8332 7.49984C15.8332 4.27484 13.2248 1.6665 9.99984 1.6665ZM5.83317 7.49984C5.83317 5.19984 7.69984 3.33317 9.99984 3.33317C12.2998 3.33317 14.1665 5.19984 14.1665 7.49984C14.1665 9.89984 11.7665 13.4915 9.99984 15.7332C8.2665 13.5082 5.83317 9.87484 5.83317 7.49984ZM7.9165 7.49984C7.9165 6.34924 8.84924 5.4165 9.99984 5.4165C10.7441 5.4165 11.4319 5.81358 11.8041 6.45817C12.1762 7.10276 12.1762 7.89692 11.8041 8.5415C11.4319 9.18609 10.7441 9.58317 9.99984 9.58317C8.84924 9.58317 7.9165 8.65043 7.9165 7.49984Z" fill="#373A40"/>
</svg>
