<svg width="29" height="29" viewBox="0 0 29 29" fill="none" xmlns="http://www.w3.org/2000/svg">
<path d="M18.6936 13.5075L12.8551 9.26315C12.7501 9.18699 12.6262 9.1413 12.4969 9.13109C12.3677 9.12088 12.2381 9.14656 12.1225 9.20529C12.0069 9.26403 11.9098 9.35354 11.8418 9.46396C11.7738 9.57438 11.7377 9.70142 11.7373 9.83108V18.3166C11.737 18.4466 11.7729 18.5741 11.8408 18.6849C11.9088 18.7957 12.0062 18.8854 12.1221 18.9441C12.2212 18.9939 12.3306 19.0198 12.4415 19.0197C12.5904 19.0193 12.7353 18.9714 12.8551 18.8829L18.6936 14.6423C18.7839 14.5777 18.8575 14.4924 18.9083 14.3937C18.9591 14.2949 18.9856 14.1854 18.9856 14.0744C18.9856 13.9633 18.9591 13.8538 18.9083 13.7551C18.8575 13.6563 18.7839 13.571 18.6936 13.5064V13.5075Z" fill="white"/>
<path d="M14.0563 1.00811e-08C11.2761 0.000210579 8.55847 0.824783 6.24694 2.36946C3.93542 3.91413 2.13382 6.10953 1.06995 8.67806C0.00608966 11.2466 -0.272265 14.0729 0.270088 16.7996C0.81244 19.5264 2.15114 22.031 4.11692 23.997C6.0827 25.9629 8.58728 27.3018 11.314 27.8444C14.0407 28.3869 16.867 28.1088 19.4356 27.0451C22.0042 25.9814 24.1998 24.18 25.7446 21.8686C27.2894 19.5572 28.1142 16.8396 28.1146 14.0594C28.1149 12.2132 27.7514 10.3849 27.045 8.67913C26.3386 6.97333 25.303 5.42339 23.9976 4.11783C22.6921 2.81226 21.1422 1.77663 19.4365 1.07009C17.7308 0.363549 15.9025 -6.99077e-05 14.0563 1.00811e-08ZM14.0563 25.7684C11.7402 25.7684 9.47624 25.0816 7.55054 23.7949C5.62484 22.5082 4.12394 20.6793 3.23763 18.5396C2.35133 16.3999 2.11944 14.0454 2.57127 11.7739C3.0231 9.50236 4.13837 7.41584 5.77604 5.77817C7.41372 4.14049 9.50024 3.02522 11.7718 2.57339C14.0433 2.12156 16.3978 2.35346 18.5375 3.23976C20.6772 4.12606 22.5061 5.62696 23.7928 7.55266C25.0795 9.47836 25.7663 11.7424 25.7663 14.0584C25.7663 15.5962 25.4634 17.1189 24.8749 18.5396C24.2864 19.9603 23.4239 21.2512 22.3365 22.3386C21.2491 23.426 19.9582 24.2885 18.5375 24.877C17.1168 25.4655 15.594 25.7684 14.0563 25.7684Z" fill="white"/>
</svg>
