<svg width="28" height="28" viewBox="0 0 28 28" fill="none" xmlns="http://www.w3.org/2000/svg">
<path d="M1 14C1 6.84117 6.84117 1 14 1V1V1C21.1588 1 27 6.84116 27 14V14V14C27 21.1588 21.1588 27 14 27V27V27C6.84116 27 1 21.1588 1 14V14V14Z" stroke="#777777" stroke-width="2"/>
<rect x="15.1816" y="5.72705" width="7.09091" height="2.36364" rx="1.18182" fill="#777777"/>
<rect x="15.1816" y="10.4546" width="7.09091" height="2.36364" rx="1.18182" fill="#777777"/>
<rect x="15.1816" y="15.1816" width="7.09091" height="2.36364" rx="1.18182" fill="#777777"/>
<rect x="16.3638" y="19.9092" width="5" height="2.36364" rx="1.18182" fill="#777777"/>
<rect x="5.72705" y="19.9092" width="7.09091" height="2.36364" rx="1.18182" fill="#777777"/>
<rect x="8.09082" y="15.1816" width="4.72727" height="2.36364" rx="1.18182" fill="#777777"/>
<rect x="6.47705" y="6.47705" width="5.59091" height="5.59091" rx="2.79545" stroke="#777777" stroke-width="1.5"/>
</svg>
