<svg width="6" height="9" viewBox="0 0 6 9" fill="none" xmlns="http://www.w3.org/2000/svg">
<path d="M5.84708 4.1483L1.58699 0.143856C1.48859 0.0517263 1.35537 0 1.21648 0C1.0776 0 0.94437 0.0517263 0.845969 0.143856L0.532084 0.438905C0.433876 0.531302 0.378709 0.656571 0.378709 0.787184C0.378709 0.917795 0.433876 1.04306 0.532084 1.13546L4.10939 4.4981L0.528042 7.86454C0.43003 7.95703 0.375 8.08227 0.375 8.21282C0.375 8.34337 0.43003 8.4686 0.528042 8.5611L0.841926 8.85614C0.940328 8.94827 1.07355 9 1.21243 9C1.35132 9 1.48454 8.94827 1.58295 8.85614L5.84708 4.84714C5.94505 4.75416 6 4.62858 6 4.49772C6 4.36685 5.94505 4.24128 5.84708 4.1483Z" fill="#13161D"/>
</svg>
