<svg width="9" height="14" viewBox="0 0 9 14" fill="none" xmlns="http://www.w3.org/2000/svg">
<path d="M8.74808 6.45291L2.51895 0.223775C2.37507 0.0804628 2.18026 -5.93725e-07 1.97718 -6.11478e-07C1.7741 -6.29232e-07 1.5793 0.0804628 1.43542 0.223775L0.976452 0.68274C0.83285 0.82647 0.752186 1.02133 0.752186 1.22451C0.752186 1.42768 0.83285 1.62254 0.976452 1.76627L6.20722 6.99704L0.970539 12.2337C0.827227 12.3776 0.74676 12.5724 0.74676 12.7755C0.74676 12.9786 0.827227 13.1734 0.970539 13.3173L1.4295 13.7762C1.57339 13.9195 1.76818 14 1.97126 14C2.17434 14 2.36915 13.9195 2.51303 13.7762L8.74808 7.53999C8.89133 7.39535 8.97168 7.20002 8.97168 6.99645C8.97168 6.79288 8.89133 6.59755 8.74808 6.45291Z" fill="#373A40" fill-opacity="0.4"/>
</svg>
