<svg width="26" height="28" viewBox="0 0 26 28" fill="none" xmlns="http://www.w3.org/2000/svg">
<path d="M15.1959 1.63931C15.0555 1.47827 14.9192 1.35269 14.7878 1.25713C13.7256 0.484212 12.8073 2.32618 13.1881 3.58344C13.3879 4.24295 13.7058 4.82465 13.934 5.15424C14.4783 6.07318 15.8343 8.32457 16.9032 9.97865C17.9721 11.6327 18.0908 13.3787 18.0166 14.0449L17.9394 14.6426C17.8127 15.6228 16.5414 15.9137 16.0124 15.0787C15.2701 13.9071 14.0825 14.0449 13.6371 14.872C12.9839 16.5261 13.7608 19.5126 14.2309 20.7991C14.4041 21.3964 14.9138 23.101 15.567 25.1411C16.2203 27.1811 17.9176 27.1398 18.6847 26.8641C19.6991 26.6114 22.0695 26.0095 23.4353 25.6235C24.8011 25.2376 25.0436 23.9924 24.9941 23.4181L23.7322 15.2166C23.4353 11.7017 21.2085 9.19756 20.2435 8.11781C18.9816 6.44075 16.2054 2.79717 15.1959 1.63931Z" stroke="#777777" stroke-width="1.75"/>
<path d="M10.8041 1.63931C10.9445 1.47827 11.0808 1.35269 11.2122 1.25713C12.2744 0.484212 13.1927 2.32618 12.8119 3.58344C12.6121 4.24295 12.2942 4.82465 12.066 5.15424C11.5217 6.07318 10.1657 8.32457 9.09684 9.97865C8.02794 11.6327 7.90917 13.3787 7.9834 14.0449L8.06064 14.6426C8.18733 15.6228 9.45863 15.9137 9.98759 15.0787C10.7299 13.9071 11.9175 14.0449 12.3629 14.872C13.0161 16.5261 12.2392 19.5126 11.7691 20.7991C11.5959 21.3964 11.0862 23.101 10.433 25.1411C9.77975 27.1811 8.08238 27.1398 7.31534 26.8641C6.30087 26.6114 3.93049 26.0095 2.56467 25.6235C1.19885 25.2376 0.956372 23.9924 1.00586 23.4181L2.26775 15.2166C2.56467 11.7017 4.79155 9.19756 5.75653 8.11781C7.01842 6.44075 9.7946 2.79717 10.8041 1.63931Z" stroke="#777777" stroke-width="1.75"/>
</svg>
