<svg width="20" height="20" viewBox="0 0 20 20" fill="none" xmlns="http://www.w3.org/2000/svg">
<path d="M10 0C8.02219 0 6.08879 0.58649 4.4443 1.6853C2.79981 2.78412 1.51809 4.3459 0.761209 6.17316C0.00433289 8.00043 -0.1937 10.0111 0.192152 11.9509C0.578004 13.8907 1.53041 15.6725 2.92894 17.0711C4.32746 18.4696 6.10929 19.422 8.0491 19.8078C9.98891 20.1937 11.9996 19.9957 13.8268 19.2388C15.6541 18.4819 17.2159 17.2002 18.3147 15.5557C19.4135 13.9112 20 11.9778 20 10C20 7.34783 18.9464 4.8043 17.0711 2.92893C15.1957 1.05357 12.6522 0 10 0V0ZM13.4561 10.53L8.45609 13.6552C8.36146 13.7143 8.25274 13.7471 8.1412 13.75C8.02966 13.7529 7.91936 13.726 7.82176 13.6719C7.72417 13.6178 7.64282 13.5386 7.58616 13.4425C7.52951 13.3463 7.49961 13.2368 7.49957 13.1252V6.87522C7.49961 6.76364 7.52951 6.6541 7.58616 6.55798C7.64282 6.46185 7.72417 6.38264 7.82176 6.32856C7.91936 6.27448 8.02966 6.24751 8.1412 6.25044C8.25274 6.25336 8.36146 6.28609 8.45609 6.34522L13.4561 9.47043C13.5459 9.52665 13.62 9.60479 13.6714 9.6975C13.7227 9.79021 13.7496 9.89445 13.7496 10.0004C13.7496 10.1064 13.7227 10.2107 13.6714 10.3034C13.62 10.3961 13.5459 10.4742 13.4561 10.5304V10.53Z" fill="#FF8240"/>
</svg>
