<svg width="20" height="20" viewBox="0 0 20 20" fill="none" xmlns="http://www.w3.org/2000/svg">
<path fill-rule="evenodd" clip-rule="evenodd" d="M10.7247 12.5583L8.60801 10.4667L8.63301 10.4417C10.083 8.82499 11.1163 6.96666 11.7247 4.99999H14.1663V3.33332H8.33301V1.66666H6.66634V3.33332H0.833008V4.99166H10.1413C9.58301 6.59999 8.69968 8.12499 7.49967 9.45832C6.72467 8.59999 6.08301 7.65832 5.57467 6.66666H3.90801C4.51634 8.02499 5.34967 9.30832 6.39134 10.4667L2.14967 14.65L3.33301 15.8333L7.49967 11.6667L10.0913 14.2583L10.7247 12.5583ZM15.4163 8.33332H13.7497L9.99967 18.3333H11.6663L12.5997 15.8333H16.558L17.4997 18.3333H19.1663L15.4163 8.33332ZM14.583 10.5583L13.233 14.1667H15.933L14.583 10.5583Z" fill="#7D7F84"/>
</svg>
