<svg width="70" height="70" viewBox="0 0 70 70" fill="none" xmlns="http://www.w3.org/2000/svg">
<path d="M35 0C28.0777 0 21.3108 2.05271 15.5551 5.89856C9.79934 9.74441 5.3133 15.2107 2.66423 21.6061C0.0151651 28.0015 -0.677952 35.0388 0.672531 41.8282C2.02301 48.6175 5.35644 54.8539 10.2513 59.7487C15.1461 64.6436 21.3825 67.977 28.1718 69.3275C34.9612 70.678 41.9985 69.9848 48.3939 67.3358C54.7893 64.6867 60.2556 60.2007 64.1014 54.4449C67.9473 48.6892 70 41.9223 70 35C70 25.7174 66.3125 16.815 59.7487 10.2513C53.185 3.68749 44.2826 0 35 0V0ZM47.0963 36.855L29.5963 47.7933C29.2651 48.0002 28.8846 48.1147 28.4942 48.125C28.1038 48.1352 27.7178 48.0408 27.3762 47.8516C27.0346 47.6623 26.7499 47.385 26.5516 47.0486C26.3533 46.7122 26.2486 46.3288 26.2485 45.9383V24.0633C26.2486 23.6727 26.3533 23.2894 26.5516 22.9529C26.7499 22.6165 27.0346 22.3392 27.3762 22.15C27.7178 21.9607 28.1038 21.8663 28.4942 21.8765C28.8846 21.8868 29.2651 22.0013 29.5963 22.2083L47.0963 33.1465C47.4108 33.3433 47.67 33.6168 47.8498 33.9412C48.0295 34.2657 48.1238 34.6306 48.1238 35.0015C48.1238 35.3725 48.0295 35.7373 47.8498 36.0618C47.67 36.3863 47.4108 36.6597 47.0963 36.8565V36.855Z" fill="white"/>
</svg>
