<svg width="26" height="18" viewBox="0 0 26 18" fill="none" xmlns="http://www.w3.org/2000/svg">
<path opacity="0.15" d="M1.90313 18C1.522 18 1.20757 17.8796 0.959833 17.6389C0.712099 17.4167 0.588234 17.1296 0.588234 16.7778C0.588234 16.2222 0.950306 15.7593 1.67445 15.3889C3.40859 14.5 4.67584 13.6389 5.47621 12.8056C6.21941 12.0093 6.59101 11.4259 6.59101 11.0556C6.59101 10.7037 6.30517 10.4907 5.73347 10.4167L5.39046 10.3889L4.9331 10.3333C3.69443 10.1667 2.69397 9.61111 1.93171 8.66667C1.16945 7.74074 0.788326 6.60185 0.788326 5.25C0.788326 3.89815 1.26474 2.71296 2.21756 1.69444C3.28472 0.564814 4.66631 0 6.36234 0C8.00119 0 9.39231 0.620371 10.5357 1.86111C11.7363 3.12037 12.3365 4.7037 12.3365 6.61111C12.3365 8.2963 11.7363 10.037 10.5357 11.8333C9.33514 13.6481 7.77251 15.1667 5.84781 16.3889C4.17085 17.463 2.85595 18 1.90313 18ZM15.5666 18C15.1855 18 14.871 17.8796 14.6233 17.6389C14.3756 17.4167 14.2517 17.1296 14.2517 16.7778C14.2517 16.2222 14.6138 15.7593 15.3379 15.3889C17.0721 14.5 18.3393 13.6389 19.1397 12.8056C19.8829 12.0093 20.2545 11.4259 20.2545 11.0556C20.2545 10.7037 19.9686 10.4907 19.3969 10.4167L19.0539 10.3889L18.5966 10.3333C17.3579 10.1667 16.3574 9.61111 15.5952 8.66667C14.8329 7.74074 14.4518 6.60185 14.4518 5.25C14.4518 3.89815 14.9282 2.71296 15.881 1.69444C16.9482 0.564814 18.3298 0 20.0258 0C21.6647 0 23.0558 0.620371 24.1992 1.86111C25.3997 3.12037 26 4.7037 26 6.61111C26 8.2963 25.3997 10.037 24.1992 11.8333C22.9986 13.6481 21.436 15.1667 19.5113 16.3889C17.8343 17.463 16.5194 18 15.5666 18Z" fill="#FF8240"/>
</svg>
