<svg width="10" height="16" viewBox="0 0 10 16" fill="none" xmlns="http://www.w3.org/2000/svg">
<path d="M9.71614 7.37475L2.59713 0.255743C2.43269 0.0919574 2.21006 -6.78543e-07 1.97797 -6.98833e-07C1.74588 -7.19122e-07 1.52324 0.0919573 1.35881 0.255743L0.834276 0.780275C0.67016 0.944537 0.577972 1.16724 0.577972 1.39944C0.577972 1.63163 0.67016 1.85434 0.834276 2.0186L6.81229 7.99662L0.827519 13.9814C0.663733 14.1458 0.571772 14.3685 0.571772 14.6006C0.571772 14.8327 0.663733 15.0553 0.827519 15.2197L1.35205 15.7443C1.51649 15.908 1.73911 16 1.9712 16C2.20329 16 2.42593 15.908 2.59036 15.7443L9.71614 8.61713C9.87985 8.45183 9.97168 8.22859 9.97168 7.99594C9.97168 7.7633 9.87985 7.54005 9.71614 7.37475Z" fill="#FF8240"/>
</svg>
