<svg width="26" height="18" viewBox="0 0 26 18" fill="none" xmlns="http://www.w3.org/2000/svg">
<path opacity="0.15" d="M24.0969 0C24.478 0 24.7924 0.12037 25.0402 0.361111C25.2879 0.583333 25.4118 0.87037 25.4118 1.22222C25.4118 1.77778 25.0497 2.24074 24.3256 2.61111C22.5914 3.5 21.3242 4.36111 20.5238 5.19444C19.7806 5.99074 19.409 6.57407 19.409 6.94444C19.409 7.2963 19.6948 7.50926 20.2665 7.58333L20.6095 7.61111L21.0669 7.66667C22.3056 7.83333 23.306 8.38889 24.0683 9.33333C24.8305 10.2593 25.2117 11.3981 25.2117 12.75C25.2117 14.1019 24.7353 15.287 23.7824 16.3056C22.7153 17.4352 21.3337 18 19.6377 18C17.9988 18 16.6077 17.3796 15.4643 16.1389C14.2637 14.8796 13.6635 13.2963 13.6635 11.3889C13.6635 9.7037 14.2637 7.96296 15.4643 6.16667C16.6649 4.35185 18.2275 2.83333 20.1522 1.61111C21.8292 0.537037 23.1441 0 24.0969 0ZM10.4334 0C10.8145 0 11.129 0.12037 11.3767 0.361111C11.6244 0.583333 11.7483 0.87037 11.7483 1.22222C11.7483 1.77778 11.3862 2.24074 10.6621 2.61111C8.92794 3.5 7.66069 4.36111 6.86032 5.19444C6.11712 5.99074 5.74552 6.57407 5.74552 6.94444C5.74552 7.2963 6.03136 7.50926 6.60306 7.58333L6.94607 7.61111L7.40343 7.66667C8.6421 7.83333 9.64256 8.38889 10.4048 9.33333C11.1671 10.2593 11.5482 11.3981 11.5482 12.75C11.5482 14.1019 11.0718 15.287 10.119 16.3056C9.05181 17.4352 7.67022 18 5.9742 18C4.33534 18 2.94422 17.3796 1.80083 16.1389C0.600278 14.8796 0 13.2963 0 11.3889C0 9.7037 0.600278 7.96296 1.80083 6.16667C3.00139 4.35185 4.56402 2.83333 6.48872 1.61111C8.16569 0.537037 9.48058 0 10.4334 0Z" fill="#FF8240"/>
</svg>
