<svg width="22" height="22" viewBox="0 0 22 22" fill="none" xmlns="http://www.w3.org/2000/svg">
<path fill-rule="evenodd" clip-rule="evenodd" d="M14.5975 15.4826C15.0708 15.0518 15.6896 14.7768 16.3812 14.7768C17.8464 14.7768 19.0386 15.9776 19.0386 17.4534C19.0386 18.9293 17.8464 20.1301 16.3812 20.1301C14.9161 20.1301 13.7239 18.9293 13.7239 17.4534C13.7239 17.2518 13.7512 17.0501 13.7967 16.8576L7.31713 13.0443C6.8257 13.5026 6.17956 13.7868 5.46062 13.7868C3.94994 13.7868 2.73047 12.5584 2.73047 11.0368C2.73047 9.51512 3.94994 8.28678 5.46062 8.28678C6.17956 8.28678 6.8257 8.57095 7.31713 9.02928L13.733 5.26178C13.6875 5.05095 13.6511 4.84012 13.6511 4.62012C13.6511 3.09845 14.8706 1.87012 16.3812 1.87012C17.8919 1.87012 19.1114 3.09845 19.1114 4.62012C19.1114 6.14178 17.8919 7.37012 16.3812 7.37012C15.6623 7.37012 15.0162 7.08595 14.5247 6.62762L8.10887 10.3951C8.15438 10.6059 8.19078 10.8168 8.19078 11.0368C8.19078 11.2568 8.15438 11.4676 8.10887 11.6784L14.5975 15.4826ZM17.2913 4.62012C17.2913 4.11595 16.8818 3.70345 16.3812 3.70345C15.8807 3.70345 15.4712 4.11595 15.4712 4.62012C15.4712 5.12428 15.8807 5.53678 16.3812 5.53678C16.8818 5.53678 17.2913 5.12428 17.2913 4.62012ZM5.46062 11.9535C4.96009 11.9535 4.55057 11.5409 4.55057 11.0368C4.55057 10.5326 4.96009 10.1201 5.46062 10.1201C5.96115 10.1201 6.37068 10.5326 6.37068 11.0368C6.37068 11.5409 5.96115 11.9535 5.46062 11.9535ZM15.4712 17.4718C15.4712 17.976 15.8807 18.3885 16.3812 18.3885C16.8818 18.3885 17.2913 17.976 17.2913 17.4718C17.2913 16.9676 16.8818 16.5551 16.3812 16.5551C15.8807 16.5551 15.4712 16.9676 15.4712 17.4718Z" fill="white" fill-opacity="0.9"/>
</svg>
