<svg width="22" height="22" viewBox="0 0 22 22" fill="none" xmlns="http://www.w3.org/2000/svg">
<path fill-rule="evenodd" clip-rule="evenodd" d="M14.7033 15.4826C15.18 15.0518 15.8033 14.7768 16.5 14.7768C17.9758 14.7768 19.1767 15.9776 19.1767 17.4534C19.1767 18.9293 17.9758 20.1301 16.5 20.1301C15.0242 20.1301 13.8233 18.9293 13.8233 17.4534C13.8233 17.2518 13.8508 17.0501 13.8967 16.8576L7.37 13.0443C6.875 13.5026 6.22417 13.7868 5.5 13.7868C3.97833 13.7868 2.75 12.5584 2.75 11.0368C2.75 9.51512 3.97833 8.28678 5.5 8.28678C6.22417 8.28678 6.875 8.57095 7.37 9.02928L13.8325 5.26178C13.7867 5.05095 13.75 4.84012 13.75 4.62012C13.75 3.09845 14.9783 1.87012 16.5 1.87012C18.0217 1.87012 19.25 3.09845 19.25 4.62012C19.25 6.14178 18.0217 7.37012 16.5 7.37012C15.7758 7.37012 15.125 7.08595 14.63 6.62762L8.1675 10.3951C8.21333 10.6059 8.25 10.8168 8.25 11.0368C8.25 11.2568 8.21333 11.4676 8.1675 11.6784L14.7033 15.4826ZM17.4167 4.62012C17.4167 4.11595 17.0042 3.70345 16.5 3.70345C15.9958 3.70345 15.5833 4.11595 15.5833 4.62012C15.5833 5.12428 15.9958 5.53678 16.5 5.53678C17.0042 5.53678 17.4167 5.12428 17.4167 4.62012ZM5.5 11.9535C4.99583 11.9535 4.58333 11.5409 4.58333 11.0368C4.58333 10.5326 4.99583 10.1201 5.5 10.1201C6.00417 10.1201 6.41667 10.5326 6.41667 11.0368C6.41667 11.5409 6.00417 11.9535 5.5 11.9535ZM15.5833 17.4718C15.5833 17.976 15.9958 18.3885 16.5 18.3885C17.0042 18.3885 17.4167 17.976 17.4167 17.4718C17.4167 16.9676 17.0042 16.5551 16.5 16.5551C15.9958 16.5551 15.5833 16.9676 15.5833 17.4718Z" fill="#F57700"/>
</svg>
