<svg width="42" height="42" viewBox="0 0 42 42" fill="none" xmlns="http://www.w3.org/2000/svg">
<g clip-path="url(#clip0_977_15089)">
<path d="M35.4375 0H6.5625C2.93813 0 0 2.93813 0 6.5625V35.4375C0 39.0619 2.93813 42 6.5625 42H35.4375C39.0619 42 42 39.0619 42 35.4375V6.5625C42 2.93813 39.0619 0 35.4375 0Z" fill="#0088CC"/>
<path d="M12.4317 19.4304C18.0224 16.9946 21.7504 15.3888 23.6157 14.613C28.9415 12.3978 30.0482 12.013 30.7695 12.0001C30.9282 11.9975 31.2829 12.0368 31.5126 12.2232C31.7067 12.3807 31.76 12.5933 31.7856 12.7426C31.8111 12.8918 31.8429 13.2319 31.8177 13.4975C31.529 16.53 30.2802 23.8889 29.6449 27.2853C29.3761 28.7224 28.8468 29.2043 28.3343 29.2514C27.2206 29.3539 26.3749 28.5154 25.2963 27.8084C23.6084 26.7019 22.6549 26.0132 21.0165 24.9335C19.123 23.6858 20.3505 23 21.4295 21.8792C21.7119 21.5859 26.6188 17.1227 26.7138 16.7178C26.7257 16.6672 26.7367 16.4784 26.6246 16.3788C26.5125 16.2791 26.347 16.3132 26.2275 16.3403C26.0582 16.3787 23.3618 18.161 18.1383 21.687C17.3729 22.2125 16.6797 22.4686 16.0585 22.4552C15.3738 22.4404 14.0566 22.068 13.0775 21.7497C11.8765 21.3593 10.9219 21.1529 11.005 20.4899C11.0483 20.1446 11.5239 19.7914 12.4317 19.4304Z" fill="white"/>
</g>
<defs>
<clipPath id="clip0_977_15089">
<rect width="42" height="42" rx="10" fill="white"/>
</clipPath>
</defs>
</svg>
