<svg width="20" height="20" viewBox="0 0 20 20" fill="none" xmlns="http://www.w3.org/2000/svg">
<path fill-rule="evenodd" clip-rule="evenodd" d="M15.8333 0.833496H4.16667C3.25 0.833496 2.50833 1.5835 2.50833 2.50016L2.5 13.2752C2.5 13.8502 2.79167 14.3585 3.23333 14.6585L10 19.1668L16.7583 14.6585C17.2 14.3585 17.4917 13.8502 17.4917 13.2752L17.5 2.50016C17.5 1.5835 16.75 0.833496 15.8333 0.833496ZM10 17.1668L4.16667 13.2835V2.50016H15.8333V13.2752L10 17.1668ZM6.175 8.82516L8.325 10.9835L13.8167 5.4835L15 6.66683L8.33333 13.3335L5 10.0002L6.175 8.82516Z" fill="#373A40"/>
</svg>
