<svg width="18" height="18" viewBox="0 0 18 18" fill="none" xmlns="http://www.w3.org/2000/svg">
<path fill-rule="evenodd" clip-rule="evenodd" d="M0.666504 8.99984C0.666504 13.5915 4.40817 17.3332 8.99984 17.3332C10.1498 17.3332 11.0832 16.3998 11.0832 15.2498C11.0832 14.7415 10.8915 14.2498 10.5498 13.8582C10.4832 13.7748 10.4415 13.6832 10.4415 13.5832C10.4415 13.3498 10.6248 13.1665 10.8582 13.1665H12.3332C15.0915 13.1665 17.3332 10.9248 17.3332 8.1665C17.3332 4.03317 13.5915 0.666504 8.99984 0.666504C4.40817 0.666504 0.666504 4.40817 0.666504 8.99984ZM2.33317 8.99984C2.33317 5.32484 5.32484 2.33317 8.99984 2.33317C12.6748 2.33317 15.6665 4.94984 15.6665 8.1665C15.6665 10.0082 14.1748 11.4998 12.3332 11.4998H10.8582C9.70817 11.4998 8.77484 12.4332 8.77484 13.5832C8.77484 14.0832 8.95817 14.5748 9.29984 14.9582C9.34984 15.0165 9.4165 15.1165 9.4165 15.2498C9.4165 15.4832 9.23317 15.6665 8.99984 15.6665C5.32484 15.6665 2.33317 12.6748 2.33317 8.99984ZM4.4165 7.33317C3.72615 7.33317 3.1665 7.89281 3.1665 8.58317C3.1665 9.27353 3.72615 9.83317 4.4165 9.83317C5.10686 9.83317 5.6665 9.27353 5.6665 8.58317C5.6665 7.89281 5.10686 7.33317 4.4165 7.33317ZM5.6665 5.24984C5.6665 4.55948 6.22615 3.99984 6.9165 3.99984C7.60686 3.99984 8.1665 4.55948 8.1665 5.24984C8.1665 5.94019 7.60686 6.49984 6.9165 6.49984C6.22615 6.49984 5.6665 5.94019 5.6665 5.24984ZM11.0832 3.99984C10.3928 3.99984 9.83317 4.55948 9.83317 5.24984C9.83317 5.94019 10.3928 6.49984 11.0832 6.49984C11.7735 6.49984 12.3332 5.94019 12.3332 5.24984C12.3332 4.55948 11.7735 3.99984 11.0832 3.99984ZM12.3332 8.58317C12.3332 7.89281 12.8928 7.33317 13.5832 7.33317C14.2735 7.33317 14.8332 7.89281 14.8332 8.58317C14.8332 9.27353 14.2735 9.83317 13.5832 9.83317C12.8928 9.83317 12.3332 9.27353 12.3332 8.58317Z" fill="#373A40"/>
</svg>
