<svg width="42" height="42" viewBox="0 0 42 42" fill="none" xmlns="http://www.w3.org/2000/svg">
<g clip-path="url(#clip0_977_15095)">
<path d="M35.4375 0H6.5625C2.93813 0 0 2.93813 0 6.5625V35.4375C0 39.0619 2.93813 42 6.5625 42H35.4375C39.0619 42 42 39.0619 42 35.4375V6.5625C42 2.93813 39.0619 0 35.4375 0Z" fill="#1DA1F2"/>
<path d="M31.5 14.4375C30.7125 14.8312 29.925 14.9625 29.0063 15.0938C29.925 14.5687 30.5812 13.7812 30.8438 12.7312C30.0562 13.2562 29.1375 13.5187 28.0875 13.7812C27.3 12.9937 26.1187 12.4688 24.9375 12.4688C22.1813 12.4688 20.0813 15.0938 20.7375 17.7188C17.1938 17.5875 14.0438 15.8813 11.8125 13.2563C10.6313 15.225 11.2875 17.7188 13.125 19.0312C12.4688 19.0312 11.8125 18.7688 11.1562 18.5063C11.1562 20.475 12.6 22.3125 14.5688 22.8375C13.9125 22.9687 13.2563 23.1 12.6 22.9688C13.125 24.675 14.7 25.9875 16.6687 25.9875C15.0937 27.1687 12.7313 27.825 10.5 27.5625C12.4688 28.7437 14.7 29.5312 17.0625 29.5312C25.0687 29.5312 29.5312 22.8375 29.2687 16.6687C30.1875 16.1437 30.975 15.3563 31.5 14.4375Z" fill="white"/>
</g>
<defs>
<clipPath id="clip0_977_15095">
<rect width="42" height="42" rx="10" fill="white"/>
</clipPath>
</defs>
</svg>
