<svg width="42" height="42" viewBox="0 0 42 42" fill="none" xmlns="http://www.w3.org/2000/svg">
<g clip-path="url(#clip0_977_15092)">
<path d="M35.4375 0H6.5625C2.93813 0 0 2.93813 0 6.5625V35.4375C0 39.0619 2.93813 42 6.5625 42H35.4375C39.0619 42 42 39.0619 42 35.4375V6.5625C42 2.93813 39.0619 0 35.4375 0Z" fill="#FF0000"/>
<path d="M30.975 15.8812C30.7125 14.9625 30.0563 14.3062 29.1375 14.0437C27.5625 13.65 20.8687 13.65 20.8687 13.65C20.8687 13.65 14.3063 13.65 12.6 14.0437C11.6813 14.3062 11.025 14.9625 10.7625 15.8812C10.5 17.5875 10.5 21 10.5 21C10.5 21 10.5 24.4125 10.8938 26.1187C11.1563 27.0375 11.8125 27.6937 12.7312 27.9562C14.3062 28.35 21 28.35 21 28.35C21 28.35 27.5625 28.35 29.2687 27.9562C30.1875 27.6937 30.8438 27.0375 31.1063 26.1187C31.5 24.4125 31.5 21 31.5 21C31.5 21 31.5 17.5875 30.975 15.8812ZM18.9 24.15V17.85L24.4125 21L18.9 24.15Z" fill="white"/>
</g>
<defs>
<clipPath id="clip0_977_15092">
<rect width="42" height="42" rx="10" fill="white"/>
</clipPath>
</defs>
</svg>
